<svg width="1200" height="630" viewBox="0 0 1200 630" xmlns="http://www.w3.org/2000/svg">
  <defs>
    <linearGradient id="bg" x1="0%" y1="0%" x2="100%" y2="100%">
      <stop offset="0%" style="stop-color:#060B18"/>
      <stop offset="60%" style="stop-color:#0A1628"/>
      <stop offset="100%" style="stop-color:#0D1F3C"/>
    </linearGradient>
    <linearGradient id="accent" x1="0%" y1="0%" x2="100%" y2="0%">
      <stop offset="0%" style="stop-color:#00D4FF"/>
      <stop offset="100%" style="stop-color:#3B82F6"/>
    </linearGradient>
    <linearGradient id="card" x1="0%" y1="0%" x2="100%" y2="100%">
      <stop offset="0%" style="stop-color:#ffffff;stop-opacity:0.06"/>
      <stop offset="100%" style="stop-color:#ffffff;stop-opacity:0.02"/>
    </linearGradient>
  </defs>

  <!-- Background -->
  <rect width="1200" height="630" fill="url(#bg)"/>

  <!-- Grid lines -->
  <g stroke="#00D4FF" stroke-opacity="0.04" stroke-width="1">
    <line x1="0" y1="105" x2="1200" y2="105"/>
    <line x1="0" y1="210" x2="1200" y2="210"/>
    <line x1="0" y1="315" x2="1200" y2="315"/>
    <line x1="0" y1="420" x2="1200" y2="420"/>
    <line x1="0" y1="525" x2="1200" y2="525"/>
    <line x1="200" y1="0" x2="200" y2="630"/>
    <line x1="400" y1="0" x2="400" y2="630"/>
    <line x1="600" y1="0" x2="600" y2="630"/>
    <line x1="800" y1="0" x2="800" y2="630"/>
    <line x1="1000" y1="0" x2="1000" y2="630"/>
  </g>

  <!-- Glow orbs -->
  <ellipse cx="200" cy="200" rx="250" ry="250" fill="#00D4FF" fill-opacity="0.04"/>
  <ellipse cx="1050" cy="450" rx="200" ry="200" fill="#3B82F6" fill-opacity="0.05"/>

  <!-- Card -->
  <rect x="60" y="60" width="1080" height="510" rx="20" fill="url(#card)" stroke="#ffffff" stroke-opacity="0.08" stroke-width="1"/>

  <!-- Top accent bar -->
  <rect x="60" y="60" width="1080" height="4" rx="2" fill="url(#accent)"/>

  <!-- Initials circle -->
  <circle cx="160" cy="220" r="70" fill="#00D4FF" fill-opacity="0.1" stroke="#00D4FF" stroke-opacity="0.3" stroke-width="1.5"/>
  <text x="160" y="232" font-family="Arial, sans-serif" font-size="36" font-weight="700" fill="#00D4FF" text-anchor="middle">SB</text>

  <!-- Name -->
  <text x="270" y="200" font-family="Arial, sans-serif" font-size="58" font-weight="700" fill="#ffffff">Sathvik Banda</text>

  <!-- Title -->
  <text x="272" y="248" font-family="Arial, sans-serif" font-size="24" font-weight="400" fill="#00D4FF">AI &amp; ML Engineer</text>

  <!-- Divider -->
  <rect x="100" y="305" width="1000" height="1" fill="#ffffff" fill-opacity="0.08"/>

  <!-- Tags -->
  <!-- Computer Vision -->
  <rect x="100" y="330" width="220" height="44" rx="22" fill="#00D4FF" fill-opacity="0.1" stroke="#00D4FF" stroke-opacity="0.3" stroke-width="1"/>
  <text x="210" y="358" font-family="Arial, sans-serif" font-size="16" fill="#00D4FF" text-anchor="middle">Computer Vision</text>

  <!-- Deep Learning -->
  <rect x="340" y="330" width="200" height="44" rx="22" fill="#8B5CF6" fill-opacity="0.1" stroke="#8B5CF6" stroke-opacity="0.3" stroke-width="1"/>
  <text x="440" y="358" font-family="Arial, sans-serif" font-size="16" fill="#A78BFA" text-anchor="middle">Deep Learning</text>

  <!-- NLP -->
  <rect x="560" y="330" width="100" height="44" rx="22" fill="#10B981" fill-opacity="0.1" stroke="#10B981" stroke-opacity="0.3" stroke-width="1"/>
  <text x="610" y="358" font-family="Arial, sans-serif" font-size="16" fill="#34D399" text-anchor="middle">NLP</text>

  <!-- Web AI -->
  <rect x="680" y="330" width="120" height="44" rx="22" fill="#F59E0B" fill-opacity="0.1" stroke="#F59E0B" stroke-opacity="0.3" stroke-width="1"/>
  <text x="740" y="358" font-family="Arial, sans-serif" font-size="16" fill="#FCD34D" text-anchor="middle">Web AI</text>

  <!-- Stats -->
  <text x="160" y="460" font-family="Arial, sans-serif" font-size="42" font-weight="700" fill="#ffffff" text-anchor="middle">22+</text>
  <text x="160" y="492" font-family="Arial, sans-serif" font-size="15" fill="#ffffff" fill-opacity="0.4" text-anchor="middle">Projects Built</text>

  <rect x="270" y="440" width="1" height="60" fill="#ffffff" fill-opacity="0.1"/>

  <text x="380" y="460" font-family="Arial, sans-serif" font-size="42" font-weight="700" fill="#ffffff" text-anchor="middle">4</text>
  <text x="380" y="492" font-family="Arial, sans-serif" font-size="15" fill="#ffffff" fill-opacity="0.4" text-anchor="middle">Live Deployments</text>

  <rect x="490" y="440" width="1" height="60" fill="#ffffff" fill-opacity="0.1"/>

  <text x="600" y="460" font-family="Arial, sans-serif" font-size="42" font-weight="700" fill="#ffffff" text-anchor="middle">20+</text>
  <text x="600" y="492" font-family="Arial, sans-serif" font-size="15" fill="#ffffff" fill-opacity="0.4" text-anchor="middle">Certificates</text>

  <!-- Portfolio URL -->
  <text x="1080" y="505" font-family="Arial, sans-serif" font-size="15" fill="#00D4FF" fill-opacity="0.6" text-anchor="end">portfolio-d3y7.vercel.app</text>
</svg>
